<svg xmlns="http://www.w3.org/2000/svg" version="1.1" xmlns:xlink="http://www.w3.org/1999/xlink" xmlns:svgjs="http://svgjs.com/svgjs" width="1440" height="560" preserveAspectRatio="none" viewBox="0 0 1440 560"><g mask="url(&quot;#SvgjsMask1000&quot;)" fill="none"><rect width="1440" height="560" x="0" y="0" fill="#0e2a47"></rect><path d="M1243.48 555.01a10 10 0 1 0 18.76-6.91z" fill="#d3b714"></path><path d="M1021.01 367.47 a34.33 34.33 0 1 0 68.66 0 a34.33 34.33 0 1 0 -68.66 0z" stroke="#d3b714"></path><path d="M403.97 121.42a28.56 28.56 0 1 0 46.8-32.74z" stroke="#e73635"></path><path d="M575.73 22.99L620.94 22.99L620.94 74.01L575.73 74.01z" stroke="#e73635"></path><path d="M1139.4 128.76L1181.17 128.76L1181.17 165.44L1139.4 165.44z" fill="#d3b714"></path><path d="M37.1 118.94L60.43 118.94L60.43 142.27L37.1 142.27z" stroke="#d3b714"></path><path d="M494.31 377.24a27.21 27.21 0 1 0 52.46 14.46z" fill="#e73635"></path><path d="M71.4 354.14 a3.36 3.36 0 1 0 6.72 0 a3.36 3.36 0 1 0 -6.72 0z" fill="#d3b714"></path><path d="M71.76 322.04L100.69 322.04L100.69 350.97L71.76 350.97z" stroke="#e73635"></path><path d="M528.9 498.2L558.67 498.2L558.67 520.5L528.9 520.5z" fill="#e73635"></path><path d="M958.81 489.23 a24.26 24.26 0 1 0 48.52 0 a24.26 24.26 0 1 0 -48.52 0z" fill="#d3b714"></path><path d="M435.86 246.37 a41.64 41.64 0 1 0 83.28 0 a41.64 41.64 0 1 0 -83.28 0z" fill="#037b0b"></path><path d="M140.68 305.36a47.36 47.36 0 1 0 51.13 79.74z" stroke="#037b0b"></path><path d="M795.54 69.78 a15.68 15.68 0 1 0 31.36 0 a15.68 15.68 0 1 0 -31.36 0z" fill="#037b0b"></path><path d="M682.97 350.7L710.35 350.7L710.35 354.39L682.97 354.39z" stroke="#037b0b"></path><path d="M369.16 394.91a12.71 12.71 0 1 0 6.84 24.48z" stroke="#e73635"></path><path d="M1019.84 91.76L1044.53 91.76L1044.53 133.53L1019.84 133.53z" fill="#d3b714"></path><path d="M1264.05 492.49a55.34 55.34 0 1 0 45.76 100.78z" stroke="#037b0b"></path><path d="M552.53 131.36L565.29 131.36L565.29 144.14L552.53 144.14z" stroke="#d3b714"></path><path d="M645.66 212.01L649.87 212.01L649.87 254.77L645.66 254.77z" stroke="#d3b714"></path><path d="M1163.69 277.54 a9.7 9.7 0 1 0 19.4 0 a9.7 9.7 0 1 0 -19.4 0z" stroke="#d3b714"></path><path d="M1024.9 20L1031.07 20L1031.07 59.8L1024.9 59.8z" stroke="#e73635"></path><path d="M955.92 557.42L1006.27 557.42L1006.27 584.55L955.92 584.55z" stroke="#d3b714"></path><path d="M351.88 479.69 a36.93 36.93 0 1 0 73.86 0 a36.93 36.93 0 1 0 -73.86 0z" fill="#037b0b"></path><path d="M508.74 548.07a13.29 13.29 0 1 0-26.33-3.63z" stroke="#037b0b"></path><path d="M182.82 38.44L217.85 38.44L217.85 87.21L182.82 87.21z" stroke="#e73635"></path><path d="M1132.64 537.59a23.26 23.26 0 1 0-7.76-45.87z" stroke="#e73635"></path><path d="M608.47 42.42L633.6 42.42L633.6 51.82L608.47 51.82z" fill="#d3b714"></path><path d="M960.29 201.2L1014.47 201.2L1014.47 255.38L960.29 255.38z" stroke="#d3b714"></path><path d="M20.47 481.15L69.29 481.15L69.29 529.97L20.47 529.97z" stroke="#d3b714"></path><path d="M208.03 115.95a28.29 28.29 0 1 0-11.06 55.49z" stroke="#037b0b"></path><path d="M191.99 337.51a0.61 0.61 0 1 0 1.08-0.58z" fill="#d3b714"></path><path d="M852.22 270.31L891.47 270.31L891.47 316.13L852.22 316.13z" fill="#d3b714"></path></g><defs><mask id="SvgjsMask1000"><rect width="1440" height="560" fill="#ffffff"></rect></mask></defs></svg>